<svg id="e1Hmv0wZPeB1" xmlns="http://www.w3.org/2000/svg" xmlns:xlink="http://www.w3.org/1999/xlink" viewBox="0 0 120 50" shape-rendering="geometricPrecision" text-rendering="geometricPrecision">
<style><![CDATA[
#e1Hmv0wZPeB5_to {animation: e1Hmv0wZPeB5_to__to 15000ms linear infinite normal forwards}@keyframes e1Hmv0wZPeB5_to__to { 0% {transform: translate(40.911227px,16.867185px)} 2% {transform: translate(40.911227px,16.867185px);animation-timing-function: cubic-bezier(0.42,0,0.58,1)} 6.666667% {transform: translate(53.830147px,16.867185px)} 16% {transform: translate(53.830147px,16.867185px)} 19.333333% {transform: translate(40.911227px,16.867185px)} 100% {transform: translate(40.911227px,16.867185px)}} #e1Hmv0wZPeB7_tr {animation: e1Hmv0wZPeB7_tr__tr 15000ms linear infinite normal forwards}@keyframes e1Hmv0wZPeB7_tr__tr { 0% {transform: translate(41.719475px,16.867177px) rotate(0deg);animation-timing-function: cubic-bezier(0.42,0,0.58,1)} 2% {transform: translate(41.719475px,16.867177px) rotate(-32.061531deg);animation-timing-function: cubic-bezier(0.42,0,0.58,1)} 6.666667% {transform: translate(41.719475px,16.867177px) rotate(360deg)} 14% {transform: translate(41.719475px,16.867177px) rotate(360deg)} 15.333333% {transform: translate(41.719475px,16.867177px) rotate(367.850292deg)} 20% {transform: translate(41.719475px,16.867177px) rotate(180deg)} 100% {transform: translate(41.719475px,16.867177px) rotate(180deg)}} #e1Hmv0wZPeB7_ts {animation: e1Hmv0wZPeB7_ts__ts 15000ms linear infinite normal forwards}@keyframes e1Hmv0wZPeB7_ts__ts { 0% {transform: scale(1,1)} 6.666667% {transform: scale(1,1);animation-timing-function: cubic-bezier(0.42,0,0.58,1)} 8% {transform: scale(0,1);animation-timing-function: cubic-bezier(0.42,0,0.58,1)} 9.333333% {transform: scale(1,1);animation-timing-function: cubic-bezier(0.42,0,0.58,1)} 10.666667% {transform: scale(0,1);animation-timing-function: cubic-bezier(0.42,0,0.58,1)} 12% {transform: scale(1,1)} 100% {transform: scale(1,1)}} #e1Hmv0wZPeB7 {animation: e1Hmv0wZPeB7_c_o 15000ms linear infinite normal forwards}@keyframes e1Hmv0wZPeB7_c_o { 0% {opacity: 0;animation-timing-function: cubic-bezier(0.42,0,0.58,1)} 1.333333% {opacity: 1} 18.666667% {opacity: 1} 20% {opacity: 0} 100% {opacity: 0}} #e1Hmv0wZPeB9 {animation: e1Hmv0wZPeB9__m 15000ms linear infinite normal forwards}@keyframes e1Hmv0wZPeB9__m { 0% {d: path('M50.544777,15.897662C50.544777,15.897662,34.87939,15.820111,34.87939,15.820111L34.87939,7.227009L73.810205,7.227009L73.810205,43.908833L34.724286,43.908833L34.724288,37.499476L50.544777,37.499476L50.544777,15.897662Z')} 4% {d: path('M50.544777,15.897662C50.544777,15.897662,34.87939,15.820111,34.87939,15.820111L34.87939,7.227009L73.810205,7.227009L73.810205,43.908833L34.724286,43.908833L34.724288,37.499476L50.544777,37.499476L50.544777,15.897662Z')} 4.666667% {d: path('M34.788671,15.447461C34.788671,15.447461,34.87939,15.36991,34.87939,15.36991L34.87939,7.227009L73.810205,7.227009L73.810205,43.908833L34.724286,43.908833L34.724286,37.161859L34.691082,37.161859L34.788671,15.447461Z');animation-timing-function: cubic-bezier(0.42,0,0.58,1)} 18% {d: path('M34.788671,15.447461C34.788671,15.447461,34.87939,15.36991,34.87939,15.36991L34.87939,7.227009L73.810205,7.227009L73.810205,43.908833L34.724286,43.908833L34.724286,37.161859L34.691082,37.161859L34.788671,15.447461Z');animation-timing-function: cubic-bezier(0.42,0,0.58,1)} 18.666667% {d: path('M50.544777,15.897662C50.544777,15.897662,34.87939,15.820111,34.87939,15.820111L34.87939,7.227009L73.810205,7.227009L73.810205,43.908833L34.724286,43.908833L34.724288,37.499476L50.544777,37.499476L50.544777,15.897662Z')} 100% {d: path('M50.544777,15.897662C50.544777,15.897662,34.87939,15.820111,34.87939,15.820111L34.87939,7.227009L73.810205,7.227009L73.810205,43.908833L34.724286,43.908833L34.724288,37.499476L50.544777,37.499476L50.544777,15.897662Z')}} #e1Hmv0wZPeB10_ts {animation: e1Hmv0wZPeB10_ts__ts 15000ms linear infinite normal forwards}@keyframes e1Hmv0wZPeB10_ts__ts { 0% {transform: translate(41.364301px,17.13346px) scale(1,1)} 7.333333% {transform: translate(41.364301px,17.13346px) scale(1,1);animation-timing-function: cubic-bezier(0.42,0,0.58,1)} 8.666667% {transform: translate(41.364301px,17.13346px) scale(0,1);animation-timing-function: cubic-bezier(0.42,0,0.58,1)} 10% {transform: translate(41.364301px,17.13346px) scale(1,1);animation-timing-function: cubic-bezier(0.42,0,0.58,1)} 11.333333% {transform: translate(41.364301px,17.13346px) scale(0,1);animation-timing-function: cubic-bezier(0.42,0,0.58,1)} 12.666667% {transform: translate(41.364301px,17.13346px) scale(1,1)} 100% {transform: translate(41.364301px,17.13346px) scale(1,1)}} #e1Hmv0wZPeB12 {animation: e1Hmv0wZPeB12_c_o 15000ms linear infinite normal forwards}@keyframes e1Hmv0wZPeB12_c_o { 0% {opacity: 1} 0.666667% {opacity: 1;animation-timing-function: cubic-bezier(0.42,0,0.58,1)} 2% {opacity: 0} 18.666667% {opacity: 0} 20% {opacity: 1} 100% {opacity: 1}} #e1Hmv0wZPeB13 {animation: e1Hmv0wZPeB13_c_o 15000ms linear infinite normal forwards}@keyframes e1Hmv0wZPeB13_c_o { 0% {opacity: 0} 8% {opacity: 0} 8.666667% {opacity: 1} 9.333333% {opacity: 0} 10.666667% {opacity: 0} 11.333333% {opacity: 1} 12% {opacity: 0} 100% {opacity: 0}} #e1Hmv0wZPeB14 {animation: e1Hmv0wZPeB14_c_o 15000ms linear infinite normal forwards}@keyframes e1Hmv0wZPeB14_c_o { 0% {opacity: 0} 7.333333% {opacity: 0;animation-timing-function: cubic-bezier(0.42,0,0.58,1)} 8% {opacity: 1;animation-timing-function: cubic-bezier(0.42,0,0.58,1)} 8.666667% {opacity: 0} 10% {opacity: 0;animation-timing-function: cubic-bezier(0.42,0,0.58,1)} 10.666667% {opacity: 1;animation-timing-function: cubic-bezier(0.42,0,0.58,1)} 11.333333% {opacity: 0} 100% {opacity: 0}}
]]></style>
<defs><linearGradient id="e1Hmv0wZPeB4-fill" x1="8" y1="29.2532" x2="8.82194" y2="6.07284" spreadMethod="pad" gradientUnits="userSpaceOnUse" gradientTransform="translate(0 0)"><stop id="e1Hmv0wZPeB4-fill-0" offset="0%" stop-color="#bb772d"/><stop id="e1Hmv0wZPeB4-fill-1" offset="28.6458%" stop-color="#fcf296"/><stop id="e1Hmv0wZPeB4-fill-2" offset="82.2917%" stop-color="#fcf296"/><stop id="e1Hmv0wZPeB4-fill-3" offset="100%" stop-color="#fda648"/></linearGradient><linearGradient id="e1Hmv0wZPeB7-fill" x1="45.812748" y1="-5.099293" x2="45.812748" y2="38.894684" spreadMethod="pad" gradientUnits="userSpaceOnUse" gradientTransform="translate(0 0)"><stop id="e1Hmv0wZPeB7-fill-0" offset="0%" stop-color="#bb772d"/><stop id="e1Hmv0wZPeB7-fill-1" offset="29%" stop-color="#fcf296"/><stop id="e1Hmv0wZPeB7-fill-2" offset="48%" stop-color="#fffce0"/><stop id="e1Hmv0wZPeB7-fill-3" offset="70%" stop-color="#fcf296"/><stop id="e1Hmv0wZPeB7-fill-4" offset="100%" stop-color="#bb772d"/></linearGradient><linearGradient id="e1Hmv0wZPeB11-fill" x1="27.117" y1="29.2595" x2="27.6657" y2="6.05057" spreadMethod="pad" gradientUnits="userSpaceOnUse" gradientTransform="translate(0 0)"><stop id="e1Hmv0wZPeB11-fill-0" offset="0%" stop-color="#bb772d"/><stop id="e1Hmv0wZPeB11-fill-1" offset="28.6458%" stop-color="#fcf296"/><stop id="e1Hmv0wZPeB11-fill-2" offset="82.2917%" stop-color="#fcf296"/><stop id="e1Hmv0wZPeB11-fill-3" offset="100%" stop-color="#fda648"/></linearGradient><linearGradient id="e1Hmv0wZPeB12-fill" x1="46.6174" y1="39.6118" x2="47.8926" y2="-3.98852" spreadMethod="pad" gradientUnits="userSpaceOnUse" gradientTransform="translate(0 0)"><stop id="e1Hmv0wZPeB12-fill-0" offset="1%" stop-color="#bb772d"/><stop id="e1Hmv0wZPeB12-fill-1" offset="28.6458%" stop-color="#fcf296"/><stop id="e1Hmv0wZPeB12-fill-2" offset="47.9167%" stop-color="#fffce0"/><stop id="e1Hmv0wZPeB12-fill-3" offset="69.7917%" stop-color="#fcf296"/><stop id="e1Hmv0wZPeB12-fill-4" offset="100%" stop-color="#bb772d"/></linearGradient></defs><g transform="matrix(1.318479 0 0 1.318479-15.640031-9.248092)"><g transform="translate(12.268353 9.04556)"><path d="M8.24988,23.1724h2.57812v3.0931h-9.5676v-3.0931h2.45873c.26258-2.0813.87368-4.1916,1.82853-6.3404.95962-2.1488,2.1675-4.0229,3.62365-5.6225h-5.89141v2.4957h-3.2799v-5.52133h13.4347v2.32703c-.9214.8865-1.7712,2.0573-2.5638,3.5171-.7877,1.455-1.41314,3.0016-1.87624,4.63-.4631,1.6333-.71136,3.1365-.74478,4.5096v.0048Z" fill="url(#e1Hmv0wZPeB4-fill)"/><g id="e1Hmv0wZPeB5_to" transform="translate(40.911227,16.867185)"><g transform="translate(-40.911226,-16.867185)"><g mask="url(#e1Hmv0wZPeB8)"><g id="e1Hmv0wZPeB7_tr" transform="translate(41.719475,16.867177) rotate(0)"><g id="e1Hmv0wZPeB7_ts" transform="scale(1,1)"><path id="e1Hmv0wZPeB7" d="M52.61156,26.20991l2.5232,1.46693c.32169.19217.4021.63735.16087.92057-2.60367,3.04516-6.19249,5.19997-10.28389,5.96882-.3619.06072-.70372-.23269-.70372-.60696v-2.92372c0-.33387-.27142-.60702-.60312-.60702h-3.97079c-.33176,0-.60318.27315-.60318.87004v2.67083c0,.37427-.33176.66768-.70372.59683-4.08134-.76886-7.68022-2.92366-10.28384-5.96882-.25132-.28322-.16085-.7284.16084-.92057l2.52319-1.46693c.29155-.17197.39209-.53617.22121-.82958l-1.99045-3.45989c-.17089-.29335-.53279-.39453-.82431-.22256l-2.53328,1.46693c-.33173.19223-.75395.04046-.87458-.31361-.65342-1.87158-1.02537-3.88481-1.02537-5.97895s.37195-4.10737,1.02537-5.97895c.13068-.35407.5529-.50584.87458-.31361l2.53328,1.46693c.29152.17197.65342.07079.82431-.22256l1.99045-3.45989c.17088-.29341.07034-.65761-.22121-.82958L28.30421,6.06766c-.32169-.19217-.40211-.63735-.16084-.92057c2.60362-3.04513,6.19244-5.19998,10.28384-5.96884.3619-.0607.70372.23268.70372.607v2.91359c0,.33385.27142.607.60318.607h3.97079c.3317,0,.60312-.27315.60312-.87003v-2.6708c0-.37431.34182-.6677.70372-.59688c4.0914.77898,7.69028,2.93383,10.28389,5.97896.25129.28322.16082.7284-.16087.92057l-2.5232,1.46693c-.29155.17197-.39203.53617-.22115.82958l1.99043,3.45989c.17088.29335.53278.39453.82433.22256l2.53327-1.46693c.3317-.19223.75393-.04046.87454.31361.65345,1.87158,1.02535,3.88481,1.02535,5.97895s-.3719,4.10737-1.02535,5.97895c-.13068.35407-.55291.50584-.87454.31361l-2.53327-1.46693c-.29155-.17197-.65345-.07079-.82433.22256l-1.99043,3.45989c-.17088.29341-.0704.65761.22115.82958Zm1.03542-9.33767c0-6.6365-5.33796-12.00844-11.93249-12.00844s-11.93249,5.37194-11.93249,12.00844s5.34797,12.00844,11.93249,12.00844c6.59453,0,11.93249-5.37194,11.93249-12.00844Z" transform="translate(-41.719475,-16.867177)" opacity="0" fill="url(#e1Hmv0wZPeB7-fill)"/></g></g><mask id="e1Hmv0wZPeB8"><path id="e1Hmv0wZPeB9" d="M50.544777,15.897662c0,0-15.665387-.077551-15.665387-.077551v-8.593102h38.930815v36.681824h-39.085919l.000002-6.409357h15.820489v-21.601814Z" transform="translate(-11.773298-9.439853)" fill="#fff" stroke="#3f5787" stroke-width="0"/></mask></g><g id="e1Hmv0wZPeB10_ts" transform="translate(41.364301,17.13346) scale(1,1)"><path d="M44.757,15.0673c-.3994,0-1.1326.1903-1.1326.1903s1.1326-1.3577,1.1326-2.2656c0-1.6517-1.4569-2.992-3.2523-2.992s-3.2523,1.3403-3.2523,2.992c0,.9079.4417,1.7165,1.1326,2.2656-.3525-.1211-.7332-.1903-1.1326-.1903-1.7954,0-3.2524,1.3404-3.2524,2.992s1.457,2.992,3.2524,2.992c1.0245,0,1.941-.4367,2.5332-1.1199.0564,1.7338-.2914,3.1433-.6063,4.0686h2.9187c-.3807-.8431-.8836-2.2699-.8977-4.0859.5969.6918,1.5134,1.1372,2.5474,1.1372c1.7953,0,3.2523-1.3404,3.2523-2.992s-1.457-2.992-3.2523-2.992h.0093Z" transform="translate(-41.5,-17)" fill="#d1021b"/></g></g></g><path d="M22.1724,11.2576v11.9387h2.0911v3.0739h-9.1522v-3.0739h2.3871v-11.9387h-2.3871v-3.07387h9.3337v3.07387h-2.2726Zm10.4269,0l-5.0654,4.9528l5.8866,6.9811h1.8524v3.0738h-9.6201v-3.0738h2.0912l-5.4236-6.4174l5.8389-5.5214h-2.1388v-3.07379h8.7607v3.07379h-2.1866l.0047.0049Z" fill="url(#e1Hmv0wZPeB11-fill)"/><path id="e1Hmv0wZPeB12" d="M58.174,11.6543c-.0716-.2168-.3246-.3131-.5204-.1975l-1.9622,1.1418c-.3246.1928-.7447.0771-.9309-.2505l-1.967-3.43516c-.191-.32762-.0764-.7516.2482-.9395l1.6997-.98767c.4201-.24571.5108-.80941.2005-1.1852-2.454-2.92447-5.8437-5.01063-9.7108-5.786314-.5013-.101176-.9692.284257-.9692.794955v1.965709c0,.38061-.3055.68896-.6827.68896h-3.934c-.3771,0-.6827-.30835-.6827-.68896v-2.028342c0-.428794-.3962-.741958-.8164-.650418-3.9387.881678-7.3618,3.13646-9.7633,6.23438h8.1305c1.3464-.6986,2.8312-1.15148,4.4067-1.27675c7.2902-.57815,13.3296,5.51171,12.7519,12.86861-.4535,5.7863-5.0988,10.4742-10.8327,10.9319-1.8476.1493-3.6141-.1349-5.2135-.7613h-8.8228c2.4588,2.9342,5.8724,5.0348,9.7586,5.8056.21.0434.4058-.1252.4058-.342v-1.4069c0-.3806.3055-.6889.6827-.6889h3.934c.3771,0,.6827.3083.6827.6889v1.4839c0,.2168.1957.3903.4106.3566c4.0008-.6649,7.5337-2.7173,10.0879-5.6611.2006-.2312.1385-.5974-.1289-.7516l-1.5898-.925c-.3246-.1927-.4392-.6119-.2483-.9395l1.967-3.4352c.191-.3276.6064-.4432.931-.2505l1.6423.9588c.2531.1493.5825.0337.678-.2458.635-1.8067.9883-3.7531.9883-5.7766c0-1.8501-.2913-3.6327-.826-5.3046l-.0048-.0048Z" fill="url(#e1Hmv0wZPeB12-fill)"/><rect id="e1Hmv0wZPeB13" width="2.819016" height="13.444539" rx="0" ry="0" transform="matrix(.599689 0 0 1.042642 53.602143 10.18023)" opacity="0" fill="#c33218" stroke-width="0"/></g><rect id="e1Hmv0wZPeB14" width="4.67352" height="35.965783" rx="1" ry="1" transform="matrix(.61085 0 0 1.028242 65.381979 7.612675)" opacity="0" fill="#f3bb78" stroke-width="0" stroke-linecap="round"/></g></svg>
